# xmcd
#
# Track frame offsets: 
#        187
#        14635
#        33530
#        53465
#        60840
#        84175
#        94175
#        113655
#        135125
#        156567
#        168230
#        188840
#        197487
#        214965
#        218155
#
# Disc length: 3390 seconds
#
# Revision: 1
# Processed by: cddbd v1.5.2PL0 Copyright (c) Steve Scherf et al.
# Submitted via: ExactAudioCopy v1.1
#
DISCID=bf0d3c0f
DTITLE=那州雪絵 - ここはグリーン・ウッド〜特別試写会「緑林(GW)お騒がせ劇場」
DYEAR=1991
DGENRE=Drama
TTITLE0=佐々木望・岩田光央・関俊彦・坂本千夏・井上和彦・西原久美子・島津冴子・千葉一伸・高木涉・飛田展男・椎名可憐・末山美由紀 - 
TTITLE0=SCENE1：ビデオ化記念記者会見
TTITLE1=坂本洋 - M-1：緑の乗車券
TTITLE2=佐々木望・岩田光央・関俊彦・坂本千夏・井上和彦・西原久美子・島津冴子・千葉一伸・高木涉・飛田展男・椎名可憐・末山美由紀 - 
TTITLE2=SCENE2：メイキング・パート1
TTITLE3=佐々木望・岩田光央・関俊彦・坂本千夏・井上和彦・西原久美子・島津冴子・千葉一伸・高木涉・飛田展男・椎名可憐・末山美由紀 - 
TTITLE3=SCENE3：メイキング・パート2
TTITLE4=佐々木望 - M-2：君を守りたい
TTITLE5=佐々木望・岩田光央・関俊彦・坂本千夏・井上和彦・西原久美子・島津冴子・千葉一伸・高木涉・飛田展男・椎名可憐・末山美由紀 - 
TTITLE5=SCENE4：メイキング番外編1
TTITLE6=伊集加代子 - M-3：First Love
TTITLE7=佐々木望・岩田光央・関俊彦・坂本千夏・井上和彦・西原久美子・島津冴子・千葉一伸・高木涉・飛田展男・椎名可憐・末山美由紀 - 
TTITLE7=SCENE5：メイキング番外編2
TTITLE8=巻上公一 - M-4：ここは八百八町
TTITLE9=佐々木望・岩田光央・関俊彦・坂本千夏・井上和彦・西原久美子・島津冴子・千葉一伸・高木涉・飛田展男・椎名可憐・末山美由紀 - 
TTITLE9=SCENE6：渚パニック
TTITLE10=岩田光央・関俊彦 - M-5：君といつまで
TTITLE11=佐々木望・岩田光央・関俊彦・坂本千夏・井上和彦・西原久美子・島津冴子・千葉一伸・高木涉・飛田展男・椎名可憐・末山美由紀 /
TTITLE11=SCENE7：That's Green Wood
TTITLE12=坂本千夏 - M-6：ノーブランド・ヒーローズ
TTITLE13=佐々木望・岩田光央・関俊彦・坂本千夏・井上和彦・西原久美子・島津冴子・千葉一伸・高木涉・飛田展男・椎名可憐・末山美由紀 /
TTITLE13=SCENE8：Epilogue
TTITLE14=グリーン・ウッドのみなさん - M-7：グリーン・ウッド・カーニバル2〜部屋番号の歌〜
EXTD=
EXTT0=
EXTT1=
EXTT2=
EXTT3=
EXTT4=
EXTT5=
EXTT6=
EXTT7=
EXTT8=
EXTT9=
EXTT10=
EXTT11=
EXTT12=
EXTT13=
EXTT14=
PLAYORDER=
